# xmcd CD database file
#
# Track frame offsets:
#	150
#	15123
#	32196
#	45594
#	62217
#	77940
#	94563
#	107211
#	127209
#	144732
#	162105
#	178728
#
# Disc length: 2616 seconds
#
# Revision: 0
# Processed by: cddbd v1.5.2PL0 Copyright (c) Steve Scherf et al.
# Submitted via: CDex 1.70beta2
#
DISCID=9f0a360c
DTITLE=Brooks and Dunn - Cowboy Town
DYEAR=2007
DGENRE=Country
TTITLE0=Cowboy Town
TTITLE1=Proud Of The House We Built
TTITLE2=Johnny Cash Junkie (Buck Owens Freak)
TTITLE3=Cowgirls Don't Cry
TTITLE4=Put A Girl In It
TTITLE5=The Ballad Of Jerry Jeff Walker (Featuring Jerry Jeff Walker)
TTITLE6=Tequila
TTITLE7=Drop In The Bucket
TTITLE8=Drunk On Love
TTITLE9=Chance Of A Lifetime
TTITLE10=American Dreamer
TTITLE11=God Must Be Busy
EXTD=YEAR: 2007
EXTT0=
EXTT1=
EXTT2=
EXTT3=
EXTT4=
EXTT5=
EXTT6=
EXTT7=
EXTT8=
EXTT9=
EXTT10=
EXTT11=
PLAYORDER=
